<svg width="36" height="36" viewBox="0 0 36 36" fill="none" xmlns="http://www.w3.org/2000/svg">
<rect width="36" height="36" fill="#3D3D3D"/>
<rect width="1721" height="382" transform="translate(-366 -266)" fill="black"/>
<rect x="-344.5" y="-19.5" width="1624" height="84" rx="4.5" stroke="#9747FF" stroke-dasharray="10 5"/>
<circle cx="18" cy="18" r="18" fill="#808080"/>
<rect x="10" y="12" width="16" height="12" fill="black"/>
<path d="M25 9H11C9.89 9 9 9.9 9 11V25C9 26.1 9.89 27 11 27H25C26.11 27 27 26.1 27 25V11C27 9.9 26.11 9 25 9ZM16 23L11 18L12.41 16.59L16 20.17L23.59 12.58L25 14L16 23Z" fill="white"/>
</svg>
