<svg width="18" height="18" viewBox="0 0 18 18" fill="none" xmlns="http://www.w3.org/2000/svg">
<rect width="18" height="18" fill="#3D3D3D"/>
<rect width="1721" height="382" transform="translate(-689 -182)" fill="red"/>
<rect x="-667.5" y="-27.5" width="1624" height="73" rx="4.5" stroke="#9747FF" stroke-dasharray="10 5"/>
<circle cx="9" cy="9" r="18" fill="#333333"/>
<rect x="1" y="3" width="16" height="12" fill="green"/>
<path d="M16 0H2C0.89 0 0 0.9 0 2V16C0 17.1 0.89 18 2 18H16C17.11 18 18 17.1 18 16V2C18 0.9 17.11 0 16 0ZM7 14L2 9L3.41 7.59L7 11.17L14.59 3.58L16 5L7 14Z" fill="red"/>
</svg>
